#!OML:ASF F:\VICON\USERDATA\Patient Classification 1\PLAYGROUND\JustinFriday\JustinFriday.ASF
:FULLY-SPECIFIED
:DEGREES
424
root 12.0326 17.6666 -18.1078 -9.53824 -141.338 5.18072
lowerback 12.7131 -2.49026 -2.51152
upperback 4.7293 -4.00035 4.74809
thorax -1.6218 -2.29462 6.96983
lowerneck 1.30133 -4.80723 -6.13425
upperneck -4.06272 -6.42173 5.4109
head -1.11538 -3.22631 2.85982
rclavicle 7.53394e-014 -3.89618e-014
rhumerus -12.2241 11.1862 -72.116
rradius 130.307
rwrist 75.6389
rhand -20.0263 -5.83653
rfingers 7.12502
rthumb 6.31438 -35.7224
lclavicle 7.53394e-014 -3.89618e-014
lhumerus -7.55472 -3.4629 86.88
lradius 105.241
lwrist -24.603
lhand -54.696 -37.5822
lfingers 7.12502
lthumb -27.0894 -9.50572
rfemur -8.36546 8.54171 22.7058
rtibia 31.8586
rfoot -17.1294 1.21259
rtoes -6.19504
lfemur -9.82068 2.72271 -3.21801
ltibia 59.7473
lfoot 4.66988 16.4353
ltoes -6.16924
425
root 11.9778 17.6867 -18.0987 -9.1706 -141.872 4.62778
lowerback 12.6492 -2.63248 -2.42591
upperback 4.69349 -4.17433 4.60259
thorax -1.61926 -2.37491 6.78271
lowerneck 0.999317 -4.36679 -5.95506
upperneck -3.72853 -5.83198 4.88007
head -1.01213 -2.92227 2.63239
rclavicle 1.05356e-014 -2.70347e-014
rhumerus -12.132 11.4461 -72.1876
rradius 130.218
rwrist 77.4179
rhand -20.0172 -3.75355
rfingers 7.12502
rthumb 6.32317 -33.6392
lclavicle 1.05356e-014 -2.70347e-014
lhumerus -6.80926 -1.90697 86.7994
lradius 105.52
lwrist -24.3573
lhand -54.6483 -36.7213
lfingers 7.12502
lthumb -27.0437 -8.63768
rfemur -8.13326 7.68284 21.9408
rtibia 31.491
rfoot -17.4553 2.3828
rtoes -7.32271
lfemur -9.90797 2.88215 -4.19377
ltibia 59.9016
lfoot 3.2462 15.9715
ltoes -6.66027
426
root 11.9352 17.707 -18.1047 -9.0376 -142.829 4.4836
lowerback 12.4561 -2.60118 -2.34243
upperback 4.73041 -4.13172 4.64666
thorax -1.48436 -2.36146 6.76027
lowerneck 0.842188 -3.9751 -5.83592
upperneck -3.5512 -5.31417 4.36133
head -0.97455 -2.65608 2.43052
rclavicle 8.71671e-014 -3.33958e-014
rhumerus -12.1117 11.6426 -72.1495
rradius 130.18
rwrist 79.2733
rhand -20.1561 -1.70526
rfingers 7.12502
rthumb 6.18914 -31.5949
lclavicle 8.71671e-014 -3.33958e-014
lhumerus -5.96817 -0.474757 86.6806
lradius 105.709
lwrist -24.0283
lhand -54.648 -34.4277
lfingers 7.12502
lthumb -27.0435 -6.34404
rfemur -8.01818 7.71225 21.7914
rtibia 31.2447
rfoot -17.6652 2.89457
rtoes -9.0481
lfemur -10.0497 3.45541 -4.52931
ltibia 59.9181
lfoot 1.84877 15.4693
ltoes -5.75005
427
root 11.9305 17.7097 -18.1406 -8.92985 -144.305 4.71808
lowerback 11.9975 -2.31843 -2.75056
upperback 4.78401 -3.81308 4.95284
thorax -1.17097 -2.22789 7.2497
lowerneck 0.583963 -3.5573 -5.79693
upperneck -3.33667 -4.75487 3.96883
head -0.901853 -2.37064 2.28263
rclavicle 2.99171e-014 3.97569e-015
rhumerus -12.2216 11.8538 -72.1318
rradius 130.267
rwrist 81.2922
rhand -20.3999 0.285692
rfingers 7.12502
rthumb 5.95372 -29.6107
lclavicle 2.99171e-014 3.97569e-015
lhumerus -5.05671 1.16686 86.5974
lradius 105.472
lwrist -24.0753
lhand -53.7323 -32.5025
lfingers 7.12502
lthumb -26.167 -4.28593
rfemur -8.24997 9.61891 22.4605
rtibia 31.0788
rfoot -17.4164 2.21453
rtoes -9.62678
lfemur -10.2792 4.54597 -4.04861
ltibia 59.8311
lfoot 0.944949 14.4849
ltoes -5.64601
428
root 11.8884 17.711 -18.1264 -8.85095 -144.958 4.88175
lowerback 11.9346 -2.42639 -2.36503
upperback 4.752 -3.91969 4.99237
thorax -1.17896 -2.27898 7.07928
lowerneck -0.0124706 -3.12155 -5.35494
upperneck -2.84726 -4.1584 3.23999
head -0.698188 -2.0681 1.94258
rclavicle 4.73108e-014 -1.90833e-014
rhumerus -12.2387 12.0338 -72.2408
rradius 130.322
rwrist 83.5085
rhand -20.7066 2.26379
rfingers 7.12502
rthumb 5.65762 -27.6407
lclavicle 4.73108e-014 -1.90833e-014
lhumerus -4.09541 2.88027 86.4704
lradius 105.093
lwrist -24.2409
lhand -51.804 -31.6219
lfingers 7.12502
lthumb -24.3196 -3.14471
rfemur -8.3699 9.4438 22.4334
rtibia 30.9241
rfoot -17.5114 3.19107
rtoes -8.54285
lfemur -10.5401 4.79437 -4.15825
ltibia 59.6603
lfoot 0.464668 13.5046
ltoes -7.80877
429
root 11.8423 17.7124 -18.1237 -8.92567 -145.439 5.091
lowerback 11.8493 -2.64849 -2.01513
upperback 4.78197 -4.18878 4.9651
thorax -1.09187 -2.4162 6.87153
lowerneck -0.566354 -2.59014 -4.36279
upperneck -2.36437 -3.44724 1.99016
head -0.521243 -1.71283 1.35049
rclavicle -3.56818e-014 -9.54166e-015
rhumerus -12.0453 12.3149 -72.4909
rradius 130.218
rwrist 85.852
rhand -21.0872 4.18352
rfingers 7.12502
rthumb 5.29012 -25.7304
lclavicle -3.56818e-014 -9.54166e-015
lhumerus -3.08601 4.41621 86.2272
lradius 104.755
lwrist -23.8074
lhand -51.5185 -31.5521
lfingers 7.12502
lthumb -24.0459 -3.03855
rfemur -8.31112 8.99457 22.4494
rtibia 30.8193
rfoot -17.7631 3.98519
rtoes -8.77943
lfemur -10.6759 4.88117 -4.17384
ltibia 59.4003
lfoot -0.33082 12.3154
ltoes -8.85254
430
root 11.7995 17.7113 -18.1301 -8.89581 -145.978 5.11905
lowerback 11.6421 -2.68424 -2.0046
upperback 4.8434 -4.25252 5.08273
thorax -0.897329 -2.46284 6.97961
lowerneck -0.299072 -2.21143 -3.86909
upperneck -2.86527 -2.98628 0.984988
head -0.756218 -1.47994 0.959925
rclavicle 6.07287e-014 4.69132e-014
rhumerus -11.6248 12.2328 -72.1045
rradius 130.065
rwrist 88.1124
rhand -21.4974 6.12148
rfingers 7.12502
rthumb 4.89405 -23.802
lclavicle 6.07287e-014 4.69132e-014
lhumerus -1.67862 5.05068 85.916
lradius 103.625
lwrist -22.7265
lhand -51.8814 -29.9387
lfingers 7.12502
lthumb -24.3938 -1.47145
rfemur -8.22434 8.82221 22.395
rtibia 30.7044
rfoot -18.091 4.3073
rtoes -10.2192
lfemur -10.8151 5.03218 -4.28084
ltibia 59.0304
lfoot -1.08937 10.9845
ltoes -9.92765
